<?xml version="1.0" encoding="UTF-8"?>
<svg width="100" height="100" viewBox="-100 -100 100 100"
	xmlns="http://www.w3.org/2000/svg">
	<g transform="translate(-50,-50)"><circle r="48.5" stroke-width="3" stroke="#000" fill="#fda"/><circle r="43.5" stroke-width="3" stroke="#000" fill="none"/><path transform="scale(0.267)" fill="#000" d="M-23,-107C-26,-104 -26,-102 -22,-95L-19,-90 -18,-51C-18,-17 -18,-13 -19,-13C-20,-13 -34,-11 -51,-9C-67,-7 -87,-5 -96,-4C-104,-3 -112,-2 -114,-2C-122,1 -114,11 -99,18C-93,21 -91,21 -83,18C-75,15 -27,6 -20,6C-18,6 -18,8 -18,39C-18,64 -18,71 -19,71C-20,71 -30,72 -43,74C-55,75 -68,76 -72,76C-78,76 -79,76 -81,78C-85,82 -80,88 -70,92C-62,95 -57,95 -51,94C-34,90 -6,87 39,86C79,85 79,85 79,79C79,74 74,70 64,66C55,62 55,62 39,65C32,66 23,67 19,67C14,68 9,68 8,69L5,69 5,37C5,19 6,4 6,4C7,2 47,1 78,1C117,1 118,1 118,-5C118,-10 112,-15 103,-20C92,-24 91,-25 55,-20C39,-18 22,-17 16,-16C6,-15 6,-16 6,-17C6,-26 9,-73 10,-77C11,-79 12,-84 14,-87C16,-92 16,-93 15,-96C13,-102 -2,-109 -13,-110C-20,-110 -20,-110 -23,-107"/></g>
</svg>
