<?xml version="1.0" encoding="UTF-8"?>
<svg width="100" height="100" viewBox="-100 -100 100 100"
	xmlns="http://www.w3.org/2000/svg">
	<g transform="translate(-50,-50)"><circle r="48.5" stroke-width="3" stroke="#000" fill="#fda"/><circle r="43.5" stroke-width="3" stroke="#000" fill="none"/><path transform="scale(0.267)" fill="#000" d="M14,-111C13,-110 13,-107 13,-105C13,-98 8,-84 2,-71C-3,-60 -17,-39 -26,-26C-32,-18 -32,-15 -27,-14C-23,-14 -11,-23 1,-36L11,-46 15,-45C18,-43 20,-43 28,-46C40,-48 54,-50 65,-50C75,-50 75,-50 75,-34C73,-4 69,11 64,12C63,13 60,12 56,10C49,6 47,6 46,9C45,11 46,13 52,25C55,32 59,39 60,40C61,41 63,42 65,42C69,42 79,35 83,29C90,20 91,14 95,-19C96,-38 96,-38 100,-46C101,-50 102,-53 101,-54C101,-57 90,-65 84,-68L79,-70 73,-68C65,-66 21,-59 20,-60C20,-61 33,-83 37,-88C39,-91 41,-94 41,-94C41,-104 18,-118 14,-111M-33,-66C-34,-66 -40,-65 -45,-63C-55,-61 -76,-56 -85,-55C-94,-54 -96,-53 -96,-50C-96,-45 -87,-40 -78,-40C-77,-40 -75,-40 -75,-39C-75,-37 -81,-21 -83,-16C-91,0 -105,18 -117,28C-126,37 -128,40 -127,42C-124,47 -104,39 -91,27C-89,25 -87,23 -87,24C-87,24 -86,31 -85,39C-83,55 -81,61 -77,63C-74,64 -71,63 -69,60C-68,57 -67,57 -51,56C-42,55 -33,53 -32,53C-29,51 -28,48 -31,45L-33,43 -29,30C-27,23 -24,16 -22,12C-18,6 -17,3 -20,1C-23,-2 -31,-6 -36,-7C-40,-8 -41,-8 -46,-6C-51,-3 -67,2 -70,2C-71,2 -71,1 -69,-1C-68,-2 -64,-8 -61,-15C-58,-21 -54,-27 -52,-29C-49,-32 -48,-35 -51,-40L-53,-43 -50,-43C-34,-47 -17,-51 -15,-52C-11,-56 -13,-60 -20,-64C-23,-65 -30,-67 -33,-66M26,-25C20,-23 7,-19 2,-19C1,-19 -2,-20 -3,-21C-6,-22 -10,-22 -12,-20C-14,-18 -14,-15 -12,-8C-11,-3 -11,0 -12,26C-13,57 -13,64 -9,75C-5,85 9,96 26,100C36,103 56,104 72,102C97,100 115,93 123,84C129,78 129,75 125,66C122,61 121,57 119,48C118,42 117,36 116,35C115,31 108,32 108,36C107,38 106,44 105,50C103,63 101,66 96,70C88,77 71,81 46,80C14,79 6,74 5,53C5,48 5,41 5,38L6,33 12,32C22,32 38,31 40,30C43,29 44,24 42,22C40,20 40,20 44,9C46,2 49,-4 52,-7C54,-10 56,-13 56,-14C57,-17 53,-21 46,-24C37,-28 33,-29 26,-25M27,-8C27,-7 26,-2 25,4C23,11 22,15 21,15C19,16 7,18 7,17C6,17 7,12 8,7C8,1 9,-4 9,-5C9,-6 19,-9 24,-9C26,-9 27,-9 27,-8M-46,12C-46,15 -50,38 -51,38C-52,39 -67,42 -68,42C-68,41 -68,35 -69,28L-69,14 -60,13C-49,11 -46,11 -46,12"/></g>
</svg>
