<?xml version="1.0" encoding="UTF-8"?>
<svg width="100" height="100" viewBox="-100 -100 100 100"
	xmlns="http://www.w3.org/2000/svg">
	<g transform="translate(-50,-50)"><circle r="48.5" stroke-width="3" stroke="#000" fill="#fda"/><circle r="43.5" stroke-width="3" stroke="#000" fill="none"/><path transform="scale(0.267)" fill="#000" d="M-15,-129C-17,-128 -17,-126 -15,-114C-14,-110 -13,-104 -13,-100L-13,-93 -24,-92C-30,-91 -41,-90 -48,-89C-61,-88 -65,-86 -63,-83C-61,-75 -53,-72 -34,-73C-27,-74 -19,-74 -17,-75L-13,-75 -13,-67C-14,-63 -14,-59 -14,-58C-15,-58 -39,-55 -47,-55C-50,-55 -57,-55 -60,-55C-66,-56 -67,-56 -69,-54C-72,-52 -72,-50 -68,-45C-64,-40 -62,-34 -59,-9C-56,16 -55,18 -52,22C-49,25 -46,25 -42,21C-39,18 -39,18 -29,18C-23,18 -17,18 -17,17C-15,17 -15,18 -15,25C-15,36 -12,34 -39,37C-49,37 -64,39 -72,40C-79,40 -91,41 -99,42C-112,42 -116,43 -116,47C-116,49 -115,51 -114,52C-112,55 -103,61 -97,62C-92,64 -91,64 -81,61C-65,56 -50,54 -19,52L-15,51 -16,64C-16,83 -15,115 -13,120C-10,126 -5,125 -2,117C1,111 4,91 5,70C6,59 6,50 7,50C8,49 33,48 69,48C92,47 111,47 112,46C121,43 116,33 103,27C95,23 92,23 77,25C61,28 8,33 7,32C6,32 6,28 7,24L7,16 11,16C13,15 18,15 23,14L31,14 34,17C39,22 44,22 48,18C52,14 54,9 61,-17C66,-33 68,-37 71,-42C73,-45 75,-49 75,-50C77,-55 70,-61 59,-66C50,-71 45,-71 35,-68C28,-65 14,-62 10,-62C8,-62 8,-63 9,-70C9,-74 9,-78 10,-78C10,-78 18,-79 28,-81C52,-84 57,-85 60,-88C62,-90 63,-91 63,-92C63,-95 57,-99 52,-101C44,-103 40,-103 29,-100C24,-99 17,-98 15,-97L10,-97 10,-102C11,-105 12,-109 13,-111C15,-116 14,-118 10,-122C4,-128 -10,-133 -15,-129M43,-49C43,-47 41,-35 41,-34C40,-34 39,-35 37,-35C32,-38 26,-38 19,-36C16,-35 12,-34 11,-34L8,-33 8,-40C8,-48 7,-48 20,-49C31,-50 42,-50 43,-49M-14,-37C-14,-32 -14,-29 -15,-29C-15,-29 -21,-28 -28,-28C-36,-27 -42,-26 -42,-27C-42,-27 -43,-30 -43,-34L-44,-41 -36,-41C-32,-42 -26,-42 -23,-43C-19,-43 -16,-44 -15,-44C-14,-44 -14,-42 -14,-37M39,-20C38,-19 37,-15 36,-10L34,-2 23,-1C17,-1 11,-1 10,-1L7,0 7,-8L7,-16 19,-17C26,-18 32,-20 34,-20C38,-21 39,-21 39,-20M-14,-6C-15,-2 -15,2 -16,2C-16,2 -21,3 -28,3L-40,5 -40,2C-40,1 -40,-3 -41,-6L-41,-11 -30,-12C-24,-12 -17,-13 -16,-13C-14,-13 -14,-13 -14,-6"/></g></svg>
