<?xml version="1.0" encoding="UTF-8"?>
<svg width="100" height="100" viewBox="-100 -100 100 100"
	xmlns="http://www.w3.org/2000/svg">
	<g transform="translate(-50,-50)"><circle r="48.5" stroke-width="3" stroke="#000" fill="#fda"/><circle r="43.5" stroke-width="3" stroke="#000" fill="none"/><path transform="scale(0.267)" fill="#000" d="M-35,-125C-36,-124 -38,-120 -39,-117C-42,-110 -57,-90 -68,-82C-72,-78 -76,-75 -76,-74C-77,-71 -75,-68 -72,-68C-69,-68 -56,-74 -47,-81L-39,-86 -30,-86C-25,-86 -19,-87 -16,-87C-12,-88 -9,-89 -9,-88C-9,-88 -13,-83 -19,-78L-29,-68 -47,-66C-58,-65 -66,-65 -67,-65C-72,-67 -81,-67 -83,-66C-85,-64 -84,-60 -81,-57C-77,-52 -77,-51 -74,-37C-71,-19 -65,-12 -58,-19C-56,-21 -55,-21 -50,-21L-45,-21 -47,-18C-52,-12 -69,0 -88,12C-95,16 -96,16 -96,19C-95,24 -93,24 -82,20C-70,16 -55,9 -45,2C-38,-2 -36,-3 -34,-2C-31,-0 -32,1 -39,8C-52,21 -70,33 -89,42C-101,49 -103,50 -103,52C-103,58 -93,57 -74,50C-57,44 -42,35 -26,21L-18,14 -17,17C-15,21 -17,23 -29,35C-48,52 -65,64 -91,76C-107,83 -109,85 -104,89C-101,90 -100,90 -93,89C-68,83 -42,71 -22,54L-12,46 -12,55C-12,64 -14,76 -17,80C-18,83 -22,85 -25,85C-27,85 -31,84 -35,82C-41,80 -43,80 -46,81C-50,82 -50,85 -44,90C-42,93 -35,99 -31,105C-26,111 -21,117 -20,117C-17,119 -10,116 -5,110C5,99 10,83 10,60C10,52 9,42 9,38C8,34 7,31 8,31C8,31 10,34 14,38C33,62 50,81 57,85C62,89 68,89 83,86C96,84 103,82 106,79C108,77 108,77 107,74C107,72 106,71 94,68C69,62 53,53 28,29L16,18 31,10C39,6 47,2 50,2C55,1 58,-1 58,-4C58,-8 50,-19 43,-23C38,-26 36,-25 32,-19C29,-11 11,9 7,9C7,9 5,8 3,7C1,6 -1,5 -2,5C-3,5 -6,3 -8,-0C-11,-3 -15,-7 -18,-9C-21,-10 -23,-12 -23,-12C-23,-12 -22,-13 -20,-13C-16,-14 -14,-18 -15,-21C-16,-24 -16,-24 -13,-24C-12,-25 -5,-25 3,-26L16,-26 19,-23C21,-20 22,-20 25,-20C30,-20 33,-23 41,-37C44,-45 49,-53 51,-55C54,-58 55,-61 55,-63C55,-66 50,-71 41,-75C33,-80 32,-80 14,-75C-0,-71 -5,-71 -5,-72C-3,-74 19,-91 24,-93C26,-94 28,-96 29,-97C30,-103 15,-113 7,-111C5,-111 -0,-109 -5,-107C-12,-104 -21,-102 -22,-102C-22,-103 -20,-104 -17,-106C-12,-109 -11,-111 -11,-113C-11,-116 -16,-121 -23,-124C-30,-126 -32,-126 -35,-125M25,-60C26,-59 26,-55 23,-47L20,-41 10,-41C4,-40 -2,-40 -5,-40L-9,-39 -9,-48L-9,-57 -5,-58C10,-60 23,-62 25,-60M-28,-45L-29,-37 -42,-36C-49,-35 -55,-35 -56,-35C-56,-35 -56,-39 -57,-44L-57,-52 -52,-52C-45,-53 -39,-54 -33,-54L-28,-54 -28,-45"/></g>
</svg>
