<?xml version="1.0" encoding="UTF-8"?>
<svg width="100" height="100" viewBox="-100 -100 100 100"
	xmlns="http://www.w3.org/2000/svg">
	<g transform="translate(-50,-50)"><circle r="48.5" stroke-width="3" stroke="#000" fill="#fda"/><circle r="43.5" stroke-width="3" stroke="#000" fill="none"/><path transform="scale(0.267)" fill="#000" d="M27,-107C18,-106 -0,-103 -13,-101C-34,-98 -38,-98 -41,-99C-55,-103 -56,-103 -59,-102C-63,-100 -63,-95 -60,-91C-57,-85 -56,-74 -57,-51C-58,-22 -60,-9 -63,-3C-67,3 -67,5 -64,10C-59,20 -54,23 -46,19C-30,11 7,6 54,4C68,4 72,4 73,5C76,7 75,15 73,34C69,62 66,73 61,80C59,81 57,83 56,83C55,83 50,81 44,80C33,75 32,75 30,78C28,81 28,81 38,94C41,99 45,105 47,109C51,117 53,118 60,115C67,112 76,104 81,96C85,90 90,76 92,66C93,62 94,50 95,38C98,18 98,16 101,10C106,1 105,-1 100,-5C95,-9 80,-16 77,-16C75,-16 71,-15 67,-15C61,-13 20,-9 13,-9C11,-9 11,-9 11,-16L12,-24 30,-26C40,-27 50,-28 53,-29C57,-30 61,-33 61,-35C61,-37 56,-41 51,-43C46,-45 44,-45 37,-45C32,-44 25,-43 21,-43L13,-41 13,-48L13,-54 19,-54C33,-56 53,-59 55,-60C56,-61 57,-62 58,-63C60,-68 54,-73 43,-75C38,-76 36,-76 26,-74C19,-72 14,-71 14,-71C13,-71 14,-73 14,-76C15,-78 15,-82 16,-84C16,-87 17,-88 18,-88C20,-89 29,-90 39,-92C59,-95 63,-96 64,-101C64,-104 61,-107 54,-110C48,-112 45,-111 27,-107M-11,-82C-11,-81 -10,-77 -10,-74C-10,-67 -9,-68 -24,-66C-39,-64 -38,-64 -38,-69C-37,-71 -37,-75 -36,-78L-36,-84 -26,-84C-20,-84 -15,-85 -14,-85C-13,-85 -12,-84 -11,-82M-9,-45L-9,-38 -20,-37C-26,-36 -33,-36 -35,-35C-40,-35 -40,-35 -40,-38C-40,-44 -39,-50 -38,-49C-37,-49 -16,-50 -10,-51C-9,-51 -9,-49 -9,-45M-10,-10L-11,-6 -25,-3C-43,-0 -42,-0 -42,-6C-42,-9 -42,-13 -41,-15L-41,-20 -33,-19C-29,-19 -22,-19 -18,-20L-11,-21 -10,-17C-10,-16 -10,-12 -10,-10M18,21C17,21 16,23 16,24C16,28 39,54 44,56C48,56 52,54 54,51C57,47 57,36 54,32C52,28 43,24 32,22C20,19 20,19 18,21M-88,24C-89,25 -90,29 -91,31C-93,38 -94,41 -100,51C-104,59 -105,62 -105,65C-105,71 -103,79 -100,81C-97,84 -92,84 -88,81C-85,77 -79,66 -77,57C-74,41 -77,23 -84,22C-86,22 -87,23 -88,24M-20,26C-23,29 -21,33 -13,45C-7,54 -0,60 3,60C6,60 11,55 12,52C13,47 12,40 10,36C6,30 -16,22 -20,26M-60,30C-62,31 -61,36 -55,46C-47,61 -41,66 -35,64C-30,62 -27,51 -31,43C-33,39 -39,34 -48,31C-53,29 -59,28 -60,30"/></g>
</svg>
