<?xml version="1.0" encoding="UTF-8"?>
<svg width="100" height="100" viewBox="-100 -100 100 100"
	xmlns="http://www.w3.org/2000/svg">
	<g transform="translate(-50,-50)"><circle r="48.5" stroke-width="3" stroke="#000" fill="#fda"/><circle r="43.5" stroke-width="3" stroke="#000" fill="none"/><path transform="scale(0.267)" fill="#000" d="M32,-110C31,-109 29,-104 28,-100C26,-94 24,-89 21,-85C16,-79 4,-68 -4,-61C-9,-57 -10,-54 -7,-52C-5,-50 2,-51 9,-56L16,-60 23,-54C27,-51 33,-46 36,-43L41,-37 34,-31C23,-22 7,-12 -4,-6C-14,-2 -16,1 -12,4C-11,6 -11,6 -14,6C-16,6 -19,6 -21,7C-23,8 -24,9 -24,11C-24,14 -22,16 -17,19C-9,23 -3,24 5,22C14,20 27,18 42,17L52,16 52,36C52,58 50,77 48,79C47,81 46,81 42,79C39,79 34,78 30,77C25,77 24,77 23,79C21,82 22,84 27,88C29,90 35,96 40,102C47,110 50,112 52,112C58,112 66,103 70,92C72,85 72,84 72,62C72,49 72,34 71,27L71,16 94,16C112,15 117,15 118,13C122,10 119,4 111,-1C103,-5 99,-5 85,-3C78,-2 73,-1 72,-1C72,-2 73,-5 73,-10C74,-16 74,-18 73,-20C71,-22 65,-25 61,-26L57,-26 66,-35C71,-40 79,-49 83,-55C88,-60 95,-67 97,-69C100,-71 103,-74 104,-75C106,-80 102,-85 91,-92C84,-96 81,-96 72,-93C66,-90 58,-88 52,-87L49,-86 53,-90C58,-95 58,-98 54,-102C50,-106 39,-111 35,-111C34,-111 32,-110 32,-110M-46,-105C-49,-103 -49,-101 -46,-92C-44,-86 -44,-83 -44,-63L-45,-41 -57,-39C-64,-38 -70,-37 -70,-37C-71,-38 -67,-60 -66,-63C-65,-65 -64,-68 -64,-70C-64,-77 -83,-87 -88,-82C-90,-80 -90,-77 -88,-72C-86,-66 -87,-55 -91,-39L-94,-26 -92,-22C-90,-17 -87,-14 -83,-13C-82,-12 -79,-13 -76,-16C-73,-18 -65,-21 -58,-24L-46,-28 -45,-13C-45,-5 -45,3 -45,3C-46,3 -54,5 -64,6C-79,8 -84,9 -91,8C-101,8 -103,8 -103,13C-103,18 -96,27 -89,29C-85,30 -85,31 -86,33C-87,41 -97,61 -103,70C-106,73 -110,78 -113,81C-119,86 -120,88 -118,91C-117,94 -114,93 -106,89C-96,84 -85,74 -78,64C-76,60 -70,50 -66,43C-60,30 -59,28 -59,25L-60,21 -53,19L-46,17 -46,24C-46,34 -49,63 -51,72C-52,83 -52,85 -50,92C-47,101 -42,107 -39,105C-34,104 -31,100 -29,92C-26,85 -26,84 -26,43C-26,-2 -25,-56 -23,-73C-23,-78 -21,-84 -21,-86C-20,-88 -19,-91 -19,-92C-19,-99 -39,-109 -46,-105M71,-73C71,-73 56,-52 55,-51C54,-50 53,-51 51,-53C48,-58 40,-63 33,-65C25,-68 28,-70 45,-70C52,-71 61,-72 64,-72C71,-74 71,-74 71,-73M23,-43C14,-40 -3,-37 -9,-37C-13,-37 -15,-37 -16,-35C-19,-32 -18,-29 -11,-23C-5,-17 -0,-15 3,-18C4,-19 11,-24 19,-28C29,-35 33,-37 33,-39C34,-42 34,-42 33,-44C30,-45 29,-45 23,-43M47,-14C48,-11 50,-7 50,-5C51,1 50,1 44,1C41,1 32,2 22,3C-9,7 -7,6 3,3C14,-0 33,-10 40,-14C42,-16 45,-18 45,-18C45,-18 47,-16 47,-14M-6,28C-8,29 -8,31 -7,32C-6,35 7,56 10,59C15,65 24,64 27,57C34,43 21,29 0,26C-4,26 -5,26 -6,28"/></g>
</svg>
