<?xml version="1.0" encoding="UTF-8"?>
<svg width="100" height="100" viewBox="-100 -100 100 100"
	xmlns="http://www.w3.org/2000/svg">
	<g transform="translate(-50,-50)"><circle r="48.5" stroke-width="3" stroke="#000" fill="#fda"/><circle r="43.5" stroke-width="3" stroke="#000" fill="none"/><path transform="scale(0.267)" fill="#000" d="M-19,-123C-22,-121 -21,-118 -14,-104C-10,-97 -6,-90 -7,-90C-7,-90 -46,-86 -60,-85C-73,-85 -75,-85 -77,-83C-81,-79 -79,-73 -72,-71C-70,-70 -64,-70 -58,-69C-49,-69 -47,-68 -48,-67C-49,-67 -49,-64 -49,-60C-50,-50 -60,-33 -77,-14C-82,-10 -85,-5 -85,-4C-85,-3 -84,-1 -83,-1C-81,1 -80,1 -77,-1C-72,-3 -61,-10 -53,-18L-46,-24 -44,-22C-34,-7 -24,-1 -18,-6C-17,-7 -16,-10 -15,-12C-14,-16 -14,-17 -17,-22C-20,-28 -25,-32 -32,-35C-38,-36 -38,-35 -28,-46C-23,-52 -22,-55 -25,-59C-27,-62 -34,-67 -39,-68C-44,-70 -44,-70 -22,-71C11,-74 58,-79 67,-80C75,-82 79,-84 80,-88C80,-91 78,-94 72,-97C64,-101 56,-101 49,-99C45,-97 20,-93 16,-93C14,-93 14,-94 15,-98C16,-109 8,-117 -5,-122C-14,-124 -17,-124 -19,-123M33,-74C33,-73 32,-71 32,-69C32,-60 26,-44 15,-25C12,-20 10,-15 10,-15C10,-13 10,-13 6,-14C5,-15 1,-16 -3,-17C-9,-18 -9,-18 -11,-16C-13,-14 -13,-14 -12,-8C-11,0 -11,14 -12,14C-14,14 -49,17 -57,18C-62,19 -75,19 -87,20C-99,20 -109,21 -110,22C-113,22 -113,28 -110,31C-107,34 -102,37 -96,39C-89,40 -88,40 -68,36C-56,34 -37,31 -22,30L-11,30 -11,74C-11,116 -11,119 -10,122C-6,129 -1,128 3,120C7,110 9,97 10,66C11,50 11,35 12,32L12,28 27,28C36,27 57,27 75,27C107,27 108,26 111,24C112,23 114,21 114,20C115,15 103,8 91,6C86,5 83,5 72,7C57,9 45,11 25,12L12,12 13,8C13,5 14,3 15,1C16,-1 16,-5 15,-8C14,-9 14,-10 15,-10C17,-10 24,-15 31,-23L38,-29 46,-21C58,-8 64,-4 71,-5C76,-7 79,-18 75,-25C72,-29 64,-35 54,-37C49,-39 46,-40 46,-41C46,-43 53,-53 56,-56C58,-58 58,-59 58,-62C56,-69 37,-78 33,-74"/></g>
	
</svg>
