<svg id="Layer_1" enable-background="new 0 0 512 512" height="512" viewBox="0 0 512 512" width="512" xmlns="http://www.w3.org/2000/svg"><g><path d="m256 0c-141.159 0-256 114.841-256 256s114.841 256 256 256 256-114.841 256-256-114.841-256-256-256zm64.267 320.267h-128.534v-128.534h128.533v128.534z" fill="#ffbe3d"/><path d="m256 0v191.733h64.267v128.533h-64.267v191.734c141.159 0 256-114.841 256-256s-114.841-256-256-256z" fill="#ff9a38"/><path d="m256 64.267c-105.722 0-191.733 86.011-191.733 191.733s86.011 191.733 191.733 191.733 191.733-86.011 191.733-191.733-86.011-191.733-191.733-191.733zm64.267 256h-128.534v-128.534h128.533v128.534z" fill="#ffdf50"/><path d="m256 64.267v127.467h64.267v128.533h-64.267v127.467c105.722 0 191.733-86.012 191.733-191.733s-86.011-191.734-191.733-191.734z" fill="#ffbe3d"/><path d="m320.267 176.733h-128.534c-8.284 0-15 6.716-15 15v128.533c0 8.284 6.716 15 15 15h128.533c8.284 0 15-6.716 15-15v-128.533c.001-8.284-6.715-15-14.999-15zm-15 128.534h-98.533v-98.533h98.533z" fill="#ffbe3d"/><path d="m320.267 176.733h-64.267v30h49.267v98.533h-49.267v30h64.267c8.284 0 15-6.716 15-15v-128.533c0-8.284-6.716-15-15-15z" fill="#ff9a38"/></g></svg>