<svg width="100" height="100" viewBox="0 0 100 100" fill="none" xmlns="http://www.w3.org/2000/svg">
    <path d="M72.222 79.0123H70.9875V69.1358H72.222C73.5801 69.1358 74.6912 68.0247 74.6912 66.6667C74.6912 65.3086 73.5801 64.1975 72.222 64.1975H68.7652C71.6047 62.5926 73.4566 59.6296 73.4566 56.1728C73.4566 51.1111 69.2591 46.9136 64.1973 46.9136C59.7529 46.9136 56.0492 50.1234 55.185 54.321L56.1726 55.5556L51.2344 62.963V66.6667H52.4689C54.5677 66.6667 56.1726 68.2716 56.1726 70.3704V74.0741H57.4072C59.506 74.0741 61.1109 75.679 61.1109 77.7778V86.4198H75.9257V82.716C75.9257 80.6173 74.3208 79.0123 72.222 79.0123Z" fill="#A3D4FF"/>
    <path d="M52.4693 39.5062L56.173 43.2099L61.1112 38.2716V34.5679L49.7532 22.963L54.9384 17.9012C51.6051 15.1852 47.2841 13.5803 42.5927 13.5803C31.7285 13.5803 22.8396 22.4692 22.8396 33.3334V53.0864L27.7779 56.7901V66.6667H26.5433C24.4446 66.6667 22.8396 68.2716 22.8396 70.3704V74.0741H21.6051C19.5063 74.0741 17.9014 75.679 17.9014 77.7778V86.4198H61.1112V77.7778C61.1112 75.679 59.5063 74.0741 57.4075 74.0741H56.173V70.3704C56.173 68.2716 54.568 66.6667 52.4693 66.6667H51.2347V62.963L56.173 55.5556L46.2964 43.2099V39.5062H52.4693V39.5062Z" fill="white"/>
    <path d="M24.0741 74.0741H21.605V70.3704C21.605 67.6543 23.8272 65.4321 26.5433 65.4321H36.4198V67.9012H26.5433C25.1852 67.9012 24.0741 69.0123 24.0741 70.3704V74.0741V74.0741ZM57.4075 74.0741H54.9383V70.3704C54.9383 69.0123 53.8272 67.9012 52.4692 67.9012H46.2963V65.4321H52.4692C55.1852 65.4321 57.4075 67.6543 57.4075 70.3704V74.0741Z" fill="#2A5082"/>
    <path d="M62.3455 87.6543H16.6665V77.7778C16.6665 75.0617 18.8887 72.8395 21.6048 72.8395H40.1233V75.3086H21.6048C20.2468 75.3086 19.1356 76.4198 19.1356 77.7778V85.1852H59.8764V77.7778C59.8764 76.4198 58.7653 75.3086 57.4072 75.3086H48.7653V72.8395H57.4072C60.1233 72.8395 62.3455 75.0617 62.3455 77.7778V87.6543Z" fill="#2A5082"/>
    <path d="M42.5926 72.8395H45.0618V75.3087H42.5926V72.8395ZM38.8889 65.4321H41.3581V67.9012H38.8889V65.4321ZM52.4692 66.6667H50V62.5926L54.6914 55.679L45.0618 43.7037V39.5062H47.5309V42.7161L57.6544 55.4321L52.4692 63.3333V66.6667ZM29.0124 66.6667H26.5433V57.4074L21.605 53.7037V33.3333C21.605 21.7284 30.9877 12.3457 42.5926 12.3457C47.4075 12.3457 51.9754 13.9506 55.6791 16.9136L56.7902 17.7778L51.2346 23.4568L49.5062 21.7284L53.0865 18.1481C50 15.9259 46.4198 14.8148 42.5926 14.8148C32.3457 14.8148 24.0741 23.0864 24.0741 33.3333V52.4691L29.0124 56.1728V66.6667Z" fill="#2A5082"/>
    <path d="M56.1728 44.9382L51.9753 40.7407H43.8272C39.7531 40.7407 36.4198 37.4074 36.4198 33.3333H38.8889C38.8889 36.0494 41.1111 38.2716 43.8272 38.2716H52.963L56.1728 41.4815L59.8765 37.7778V35.0617L46.6667 21.8518L48.3951 20.1234L62.3457 34.0741V38.7654L56.1728 44.9382V44.9382ZM29.0124 39.5062H26.5432V33.3333C26.5432 24.4444 33.7037 17.2839 42.5926 17.2839V19.7531C35.0617 19.7531 29.0124 25.8025 29.0124 33.3333V39.5062ZM77.1605 87.6543H52.4691V85.1852H74.6914V82.716C74.6914 81.358 73.5802 80.2469 72.2222 80.2469H69.7531V67.9012H72.2222C72.963 67.9012 73.4568 67.4074 73.4568 66.6666C73.4568 65.9259 72.963 65.4321 72.2222 65.4321H64.1975L68.1481 63.0864C70.6173 61.6049 72.2222 59.0123 72.2222 56.1728C72.2222 51.7284 68.642 48.1481 64.1975 48.1481C61.6049 48.1481 59.2593 49.2592 57.7778 51.358L55.8025 49.8765C57.7778 47.1605 60.8642 45.679 64.1975 45.679C70 45.679 74.6914 50.3703 74.6914 56.1728C74.6914 58.642 73.8272 61.1111 72.2222 62.9629C74.321 62.9629 75.9259 64.5679 75.9259 66.6666C75.9259 68.7654 74.321 70.3703 72.2222 70.3703V77.7777C74.9383 77.7777 77.1605 80 77.1605 82.716V87.6543V87.6543Z" fill="#2A5082"/>
    <path d="M56.1728 44.9382L51.9753 40.7407H43.8272C39.7531 40.7407 36.4198 37.4074 36.4198 33.3333H38.8889C38.8889 36.0494 41.1111 38.2716 43.8272 38.2716H52.963L56.1728 41.4815L59.8765 37.7778V35.0617L46.6667 21.8518L48.3951 20.1234L62.3457 34.0741V38.7654L56.1728 44.9382V44.9382ZM29.0124 39.5062H26.5432V33.3333C26.5432 24.4444 33.7037 17.2839 42.5926 17.2839V19.7531C35.0617 19.7531 29.0124 25.8025 29.0124 33.3333V39.5062ZM77.1605 87.6543H52.4691V85.1852H74.6914V82.716C74.6914 81.358 73.5802 80.2469 72.2222 80.2469H69.7531V67.9012H72.2222C72.963 67.9012 73.4568 67.4074 73.4568 66.6666C73.4568 65.9259 72.963 65.4321 72.2222 65.4321H64.1975L68.1481 63.0864C70.6173 61.6049 72.2222 59.0123 72.2222 56.1728C72.2222 51.7284 68.642 48.1481 64.1975 48.1481C61.6049 48.1481 59.2593 49.2592 57.7778 51.358L55.8025 49.8765C57.7778 47.1605 60.8642 45.679 64.1975 45.679C70 45.679 74.6914 50.3703 74.6914 56.1728C74.6914 58.642 73.8272 61.1111 72.2222 62.9629C74.321 62.9629 75.9259 64.5679 75.9259 66.6666C75.9259 68.7654 74.321 70.3703 72.2222 70.3703V77.7777C74.9383 77.7777 77.1605 80 77.1605 82.716V87.6543V87.6543Z" fill="#2A5082"/>
    <path d="M62.3455 62.963H68.5184V65.4321H62.3455V62.963ZM64.8147 67.9012H70.9875V70.3704H64.8147V67.9012ZM64.8147 77.7778H70.9875V80.2469H64.8147V77.7778ZM61.111 55.5556H58.6418C58.6418 52.8395 60.8641 50.6173 63.5801 50.6173V53.0864C62.2221 53.0864 61.111 54.1975 61.111 55.5556Z" fill="#2A5082"/>
    </svg>
    