<?xml version="1.0" encoding="UTF-8"?>
<svg width="100" height="100" viewBox="-100 -100 100 100"
	xmlns="http://www.w3.org/2000/svg">
	<g transform="translate(-50,-50)"><circle r="48.5" stroke-width="3" stroke="#000" fill="#fda"/><circle r="43.5" stroke-width="3" stroke="#c00" fill="none"/><path transform="scale(0.267)" fill="#c00" d="M-49,-106C-50,-105 -51,-103 -52,-98C-55,-72 -81,-30 -115,6C-123,14 -125,17 -122,20C-120,22 -116,21 -110,17C-89,1 -84,-3 -77,-11L-69,-20 -69,12C-70,44 -71,61 -74,72C-75,80 -75,84 -73,90C-70,98 -67,104 -64,105C-62,106 -62,106 -59,103C-52,97 -52,96 -51,48C-51,24 -51,0 -50,-5C-47,-26 -47,-23 -53,-29L-58,-34 -56,-36C-53,-40 -40,-61 -34,-72C-31,-76 -28,-82 -26,-84C-20,-89 -21,-92 -27,-98C-36,-107 -44,-110 -49,-106M14,-98C11,-95 11,-93 14,-86C18,-77 19,-69 19,-42L19,-18 -11,-14C-28,-12 -43,-9 -44,-9C-50,-6 -45,2 -35,5C-28,8 -22,7 -11,5C-1,3 15,0 18,0C20,0 20,2 20,27L20,55 -3,58C-26,61 -31,62 -31,65C-31,68 -27,73 -24,74C-16,78 -11,78 3,76C10,75 23,73 32,72C45,70 55,70 90,68C99,67 102,65 102,61C102,57 98,53 91,50C83,45 77,45 59,48C51,50 44,51 43,51C42,51 42,47 42,24C43,9 43,-3 43,-4C44,-4 86,-8 104,-9C119,-10 122,-11 124,-14C126,-18 122,-23 111,-28C103,-32 100,-33 92,-30C89,-30 78,-28 68,-26C57,-24 47,-23 46,-22L43,-22 43,-39C43,-60 44,-68 48,-77C50,-84 50,-84 49,-87C44,-96 20,-104 14,-98"/></g>
</svg>
