<?xml version="1.0" encoding="UTF-8"?>
<svg width="100" height="100" viewBox="-100 -100 100 100"
	xmlns="http://www.w3.org/2000/svg">
	<g transform="translate(-50,-50)"><circle r="48.5" stroke-width="3" stroke="#000" fill="#fda"/><circle r="43.5" stroke-width="3" stroke="#c00" fill="none"/><path transform="scale(0.267)" fill="#c00" d="M9,-112C8,-110 7,-108 7,-104C7,-98 4,-85 -1,-72C-4,-62 -16,-36 -24,-23C-27,-17 -27,-16 -26,-14C-25,-13 -25,-11 -26,-11C-27,-10 -29,-6 -29,-4C-27,1 -26,13 -27,38C-29,77 -27,85 -17,95C-11,101 -2,105 11,109C19,111 23,111 40,112C78,113 101,107 117,92C123,85 123,83 119,77C115,71 113,66 110,53C108,42 106,38 103,38C100,38 98,41 96,52C93,71 90,79 81,83C67,91 30,93 7,87C-2,85 -6,83 -8,78C-10,74 -10,72 -10,59L-11,45 4,42C11,40 19,39 21,38C28,37 31,33 26,28C25,26 25,25 28,17C30,12 32,5 34,3C39,-5 39,-7 35,-11C32,-13 24,-17 19,-18C17,-19 14,-18 10,-16C6,-14 -0,-12 -5,-11C-12,-9 -13,-9 -16,-10L-20,-12 -10,-22C-5,-27 1,-33 2,-34L4,-37 8,-35C13,-34 13,-34 21,-37C31,-41 49,-46 56,-47C60,-47 62,-47 64,-46C66,-45 66,-44 66,-36C63,-5 57,22 53,24C52,24 48,23 45,21C39,19 37,19 35,20C31,21 31,24 37,31C40,34 43,39 45,42C50,52 53,53 61,49C66,47 72,38 75,30C78,24 81,8 84,-15C86,-24 88,-34 89,-38C90,-42 91,-47 92,-48C93,-52 90,-56 83,-61C79,-64 75,-66 73,-66C71,-67 67,-66 60,-64C54,-62 43,-59 35,-57C14,-52 13,-52 13,-53C15,-58 31,-88 33,-91C37,-96 37,-99 33,-103C29,-108 18,-114 15,-114C13,-114 11,-113 9,-112M-80,-105C-83,-103 -82,-101 -80,-94C-75,-82 -75,-17 -80,12C-85,42 -95,65 -114,87C-121,95 -123,99 -119,101C-113,104 -88,83 -78,66C-75,62 -71,55 -70,51C-68,47 -67,43 -67,43C-66,43 -63,48 -58,54C-46,70 -43,72 -37,66C-34,64 -34,63 -33,57C-33,47 -38,41 -55,34C-59,33 -63,32 -63,31C-63,31 -62,28 -62,24C-60,17 -57,-10 -57,-18C-57,-19 -56,-20 -54,-21C-52,-22 -46,-26 -41,-31C-35,-35 -29,-39 -26,-41C-24,-42 -21,-45 -20,-46L-18,-49 -20,-54C-24,-62 -36,-69 -41,-66C-42,-66 -44,-61 -46,-56C-49,-47 -52,-41 -54,-38C-56,-36 -56,-36 -56,-39C-56,-52 -54,-81 -52,-88C-51,-92 -50,-96 -51,-97C-51,-99 -59,-105 -65,-106C-71,-108 -78,-107 -80,-105M-115,-33C-119,-31 -118,-26 -112,-13C-103,5 -97,11 -90,8C-86,5 -84,1 -84,-6C-84,-17 -90,-25 -101,-30C-109,-34 -112,-34 -115,-33M11,1C11,2 10,7 9,13L7,24 3,25C1,26 -3,27 -6,28C-10,28 -10,28 -10,25C-9,24 -9,20 -9,16C-8,5 -7,3 -1,2C6,-0 11,-0 11,1"/></g>
</svg>
