<?xml version="1.0" encoding="UTF-8"?>
<svg width="100" height="100" viewBox="-100 -100 100 100"
	xmlns="http://www.w3.org/2000/svg">
	<g transform="translate(-50,-50)"><circle r="48.5" stroke-width="3" stroke="#000" fill="#fda"/><circle r="43.5" stroke-width="3" stroke="#c00" fill="none"/><path transform="scale(0.267)" fill="#c00" d="M15,-124C14,-123 12,-121 12,-120C11,-118 11,-117 19,-107C21,-104 21,-103 21,-93C21,-84 21,-83 19,-83C15,-82 0,-80 -11,-79C-21,-79 -22,-78 -24,-76C-25,-74 -24,-71 -20,-68C-13,-63 -8,-62 4,-62C10,-63 16,-63 18,-64L21,-64 21,-58L21,-52 6,-50C-3,-48 -13,-48 -21,-48C-37,-47 -38,-47 -31,-30C-28,-24 -25,-12 -23,-5C-19,11 -19,13 -16,17C-12,23 -5,24 -4,20C-3,19 0,18 7,17C12,16 18,16 19,16C21,15 21,16 21,24L21,32 17,32C14,33 -20,36 -37,38C-43,38 -45,39 -47,40C-48,42 -48,42 -47,45C-45,50 -37,55 -31,56C-29,56 -21,55 -13,54C-5,53 5,52 9,51C12,51 17,51 18,50L21,50 21,72C21,97 22,108 26,112C31,117 37,112 39,101C40,97 40,84 41,72L41,49 51,48C57,48 73,48 87,49C114,50 118,50 120,46C121,45 121,43 121,42C121,37 106,26 98,25C96,24 85,25 74,26C63,28 51,29 47,30L41,30 41,22L41,14 52,13L64,13 68,16C75,22 80,22 84,15C86,11 90,-5 93,-20C94,-24 96,-28 99,-33C105,-42 105,-44 99,-50C93,-55 81,-61 77,-61C76,-61 70,-60 65,-59C60,-58 52,-57 48,-56L41,-56 41,-58C41,-63 42,-67 44,-67C45,-68 52,-69 60,-70C85,-74 88,-75 88,-82C88,-85 87,-86 84,-88C77,-93 67,-93 55,-90C51,-89 46,-88 45,-88L42,-87 43,-93C44,-96 45,-100 46,-103C48,-108 48,-109 47,-112C45,-117 40,-120 30,-124C23,-127 19,-127 15,-124M-54,-113C-57,-111 -58,-108 -56,-103C-54,-96 -55,-93 -62,-78C-72,-58 -85,-40 -109,-11C-119,1 -120,4 -118,7C-116,9 -111,8 -105,4C-98,-0 -83,-13 -80,-18L-77,-21 -76,-19C-75,-17 -74,-11 -74,3C-74,25 -75,37 -79,56C-82,70 -82,73 -79,81C-77,90 -74,94 -70,96C-64,99 -61,97 -58,85C-56,79 -56,74 -55,38C-55,16 -54,-7 -53,-13L-53,-23 -59,-29L-64,-36 -62,-39C-59,-42 -44,-61 -38,-71C-36,-74 -32,-79 -29,-82C-25,-87 -24,-89 -24,-92C-24,-96 -25,-97 -30,-102C-38,-111 -48,-115 -54,-113M67,-42C71,-41 72,-38 71,-34C71,-32 71,-32 65,-32C62,-32 55,-31 51,-31C46,-30 42,-29 42,-29C41,-29 41,-32 41,-35L41,-41 50,-41C55,-42 59,-42 60,-42C63,-43 65,-43 67,-42M21,-32C21,-25 22,-26 9,-24C4,-23 -1,-23 -3,-22C-7,-22 -7,-22 -8,-29L-9,-33 -1,-34C7,-36 16,-38 19,-38C21,-38 21,-37 21,-32M68,-11C67,-4 67,-3 63,-4C60,-5 52,-4 44,-3C41,-2 41,-2 41,-7L41,-13 48,-13C52,-14 58,-14 60,-14C62,-15 65,-15 67,-15C69,-15 69,-15 68,-11M21,-5L21,1 12,1C7,2 2,2 0,3C-3,3 -3,3 -4,-2L-5,-7 5,-8C10,-9 15,-10 16,-11C16,-11 18,-11 19,-11C21,-11 21,-11 21,-5"/></g>
</svg>
