<?xml version="1.0" encoding="UTF-8"?>
<svg width="100" height="100" viewBox="-100 -100 100 100"
	xmlns="http://www.w3.org/2000/svg">
	<g transform="translate(-50,-50)"><circle r="48.5" stroke-width="3" stroke="#000" fill="#fda"/><circle r="43.5" stroke-width="3" stroke="#c00" fill="none"/><path transform="scale(0.267)" fill="#c00" d="M-53,-114C-56,-111 -56,-108 -53,-100C-51,-95 -51,-92 -50,-70C-50,-51 -50,-46 -51,-46C-52,-46 -58,-45 -65,-44C-72,-43 -81,-42 -85,-41C-95,-41 -99,-39 -100,-36C-100,-33 -98,-30 -93,-27C-90,-26 -87,-26 -73,-26C-64,-26 -56,-26 -56,-25C-56,-24 -70,-0 -75,7C-82,18 -98,35 -109,44C-119,52 -121,56 -119,59C-117,61 -114,60 -103,55C-83,45 -70,33 -57,14L-52,7 -52,21C-53,39 -56,68 -59,79C-60,86 -60,88 -59,93C-57,101 -53,109 -49,111C-46,113 -46,113 -43,111C-42,110 -39,107 -38,104C-36,100 -36,98 -35,82C-34,72 -34,56 -34,45C-34,34 -33,20 -33,16L-33,7 -26,14C-19,24 -15,26 -10,26C-4,26 -1,20 -2,11C-4,4 -15,-5 -27,-9C-32,-11 -32,-11 -32,-13C-32,-15 -32,-19 -32,-23L-32,-31 -21,-33C-5,-36 -2,-37 1,-40C4,-43 3,-45 -1,-49C-7,-54 -16,-55 -25,-52C-28,-51 -30,-51 -31,-51C-31,-52 -29,-81 -27,-89C-24,-102 -24,-101 -28,-106C-33,-110 -43,-116 -48,-116C-50,-116 -52,-115 -53,-114M68,-74C63,-72 51,-69 42,-67C27,-64 24,-64 21,-65C15,-67 9,-67 7,-65C5,-63 5,-60 8,-52C10,-46 10,-44 11,-21C11,6 10,31 7,48C4,71 4,76 10,84C15,92 21,92 23,84L24,79 36,79C42,78 51,77 56,77C70,75 69,75 73,84C77,93 79,96 83,96C90,96 100,81 102,70C102,68 101,57 100,46C98,29 98,22 98,-5C98,-38 99,-46 102,-52C105,-58 105,-60 98,-66C92,-71 82,-77 79,-77C77,-77 73,-76 68,-74M74,-55C76,-53 76,-51 77,-39L77,-25 72,-26C68,-27 66,-27 57,-25C45,-22 33,-19 30,-19C29,-19 29,-21 29,-30C29,-36 29,-43 30,-46L30,-51 36,-52C52,-55 72,-57 74,-55M77,3L77,16 73,15C66,14 61,15 47,18C39,20 32,21 31,21L28,21 28,9L28,-3 33,-3C37,-3 72,-9 73,-10C73,-10 74,-10 75,-10C77,-10 77,-9 77,3M76,38C76,42 76,48 75,52C75,57 75,58 72,57C71,57 62,58 53,59C44,60 34,61 31,62L26,62 26,56C26,53 26,48 27,44L27,37 35,37C39,37 49,36 57,34C78,30 76,30 76,38"/></g>
</svg>
