<?xml version="1.0" encoding="UTF-8"?>
<svg width="100" height="100" viewBox="-100 -100 100 100"
	xmlns="http://www.w3.org/2000/svg">
	<g transform="translate(-50,-50)"><circle r="48.5" stroke-width="3" stroke="#000" fill="#fda"/><circle r="43.5" stroke-width="3" stroke="#c00" fill="none"/><path transform="scale(0.267)" fill="#c00" d="M-48,-105C-49,-103 -50,-101 -50,-94C-51,-83 -55,-73 -63,-58C-76,-36 -91,-16 -107,1C-117,11 -117,12 -116,15C-115,18 -112,18 -106,15C-99,11 -82,-3 -75,-11C-71,-15 -68,-18 -68,-18C-67,-18 -67,8 -68,22C-70,42 -72,60 -74,68C-77,77 -76,80 -74,88C-68,104 -60,107 -55,95C-52,87 -51,81 -50,43C-50,23 -49,1 -48,-7C-47,-25 -46,-24 -51,-29L-56,-34 -49,-45C-45,-51 -39,-61 -36,-67C-32,-73 -28,-80 -25,-83C-23,-86 -21,-88 -21,-89C-21,-93 -28,-102 -35,-105C-40,-108 -45,-108 -48,-105M73,-103C68,-101 38,-96 21,-94C6,-92 6,-92 0,-94C-7,-96 -12,-97 -14,-94C-16,-92 -16,-92 -14,-86C-12,-81 -12,-78 -11,-65C-10,-38 -14,-2 -17,3C-20,7 -19,12 -16,18C-11,26 -10,26 2,22C12,17 44,13 72,11C90,11 90,10 89,24C89,36 86,59 83,67C81,75 77,80 72,83C68,85 65,84 57,80C50,77 47,76 45,80C44,81 45,82 49,90C52,94 56,101 58,105C63,114 66,117 70,117C79,115 92,105 97,95C102,85 107,65 111,37C112,26 113,23 115,18C121,8 119,4 103,-4C94,-9 92,-9 83,-7C80,-6 71,-5 64,-4L50,-2 50,-10C50,-16 50,-18 51,-18C55,-18 78,-21 81,-22C87,-23 88,-25 88,-28C88,-31 84,-34 77,-36C71,-37 72,-37 54,-34L51,-34 51,-41C51,-45 51,-49 52,-49C52,-50 59,-51 67,-52C88,-55 92,-57 89,-63C88,-65 86,-66 80,-68L73,-70 63,-68C58,-67 54,-66 53,-66C52,-66 52,-72 53,-74C54,-75 54,-77 54,-79C54,-81 55,-82 56,-82C58,-83 65,-84 73,-85C89,-88 93,-89 95,-92C99,-98 82,-106 73,-103M31,-76C31,-75 32,-71 32,-68L32,-62 23,-61C18,-60 12,-60 11,-59C8,-59 8,-59 8,-63C8,-66 8,-70 9,-73L10,-78 16,-78C20,-78 24,-79 26,-79C29,-79 30,-79 31,-76M32,-39C32,-35 31,-32 31,-31C30,-31 6,-27 5,-27C5,-27 5,-31 6,-36L7,-44 13,-45C17,-45 22,-45 24,-46C33,-48 32,-48 32,-39M31,-8C31,-3 31,0 30,0C30,0 24,1 18,2C11,3 5,4 5,4C4,4 4,0 4,-4L4,-13 14,-14C20,-14 26,-15 28,-15L31,-15 31,-8M46,22C44,24 44,25 52,42C57,52 59,55 62,57C66,60 68,60 71,56C80,46 75,31 60,24C52,20 49,19 46,22M-27,30C-27,31 -29,35 -30,40C-32,44 -35,51 -37,54C-42,63 -43,68 -42,73C-40,80 -38,83 -35,84C-25,88 -13,64 -16,43C-17,38 -18,33 -19,32C-21,28 -25,27 -27,30M17,30C14,33 14,33 23,50C28,61 30,64 33,65C37,68 40,67 43,62C46,57 47,50 44,44C42,40 36,34 30,31C21,28 19,28 17,30M-8,35C-11,37 -10,38 -7,50C-1,71 5,77 12,71C16,67 17,64 17,58C17,50 12,43 2,37C-4,33 -6,32 -8,35"/></g>
</svg>
