<?xml version="1.0" encoding="UTF-8"?>
<svg width="100" height="100" viewBox="-100 -100 100 100"
	xmlns="http://www.w3.org/2000/svg">
	<g transform="translate(-50,-50)"><circle r="48.5" stroke-width="3" stroke="#000" fill="#fda"/><circle r="43.5" stroke-width="3" stroke="#c00" fill="none"/><path transform="scale(0.267)" fill="#c00" d="M24,-121C21,-118 21,-116 24,-110C26,-105 26,-103 27,-77C27,-55 27,-49 26,-48C23,-46 7,-46 0,-47C-5,-48 -7,-48 -9,-47C-12,-45 -13,-41 -10,-35C-6,-24 -6,-9 -12,8C-14,14 -15,18 -15,20C-12,34 -5,43 0,37C6,31 11,8 13,-21L13,-31 18,-31C20,-32 23,-32 25,-33L27,-33 27,38C27,103 27,109 28,114C30,118 31,120 32,121C37,123 40,120 43,108C47,94 48,81 49,21L51,-35 54,-36C55,-37 61,-37 66,-37L76,-38 76,-18C76,0 75,17 74,19C73,19 70,18 65,18C59,16 57,16 55,17C51,19 53,22 61,30C65,34 70,40 72,42C77,50 83,50 89,41C96,32 98,22 100,-14C101,-28 101,-33 102,-36C106,-44 103,-49 90,-55L83,-58 75,-56C67,-54 55,-52 52,-52C50,-52 51,-95 54,-105L55,-112 52,-116C48,-119 40,-122 32,-123C26,-123 25,-123 24,-121M-65,-116C-67,-114 -68,-113 -69,-107C-71,-93 -84,-63 -87,-65C-90,-66 -98,-66 -100,-65C-104,-63 -104,-61 -101,-54L-98,-48 -98,-22C-98,7 -99,24 -103,40C-104,50 -105,53 -104,57C-102,67 -95,77 -90,77C-87,77 -85,75 -85,71C-83,64 -83,64 -76,64C-50,61 -31,59 -29,58C-26,57 -26,52 -29,50C-31,48 -31,47 -28,37C-26,32 -24,24 -22,21C-20,17 -18,13 -18,12C-18,9 -22,5 -28,3C-37,-2 -41,-2 -49,2C-55,5 -62,7 -73,9L-80,11 -79,3C-79,-2 -79,-6 -79,-6C-78,-6 -57,-9 -44,-10C-39,-11 -33,-11 -32,-12C-29,-13 -29,-17 -30,-20C-32,-22 -32,-23 -29,-31C-27,-36 -24,-43 -21,-47C-19,-50 -17,-54 -17,-55C-17,-59 -26,-65 -35,-68C-38,-69 -39,-69 -51,-65C-57,-63 -65,-61 -67,-60L-72,-60 -69,-64C-67,-67 -62,-73 -58,-78C-55,-82 -49,-90 -45,-94C-42,-99 -39,-102 -39,-103C-39,-103 -40,-105 -41,-107C-42,-109 -45,-111 -51,-114C-60,-119 -62,-119 -65,-116M-46,-48C-47,-47 -48,-41 -49,-36L-50,-26 -62,-24C-69,-23 -75,-22 -76,-21C-78,-21 -78,-22 -78,-33L-78,-45 -71,-45C-68,-46 -61,-47 -57,-48C-47,-51 -46,-51 -46,-48M-47,19C-47,20 -47,26 -48,33L-50,44 -63,47C-82,50 -81,50 -81,43C-81,39 -81,34 -80,30L-80,24 -74,24C-71,23 -65,22 -60,21C-50,18 -48,18 -47,19"/></g>
</svg>
