<?xml version="1.0" encoding="UTF-8"?>
<svg width="100" height="100" viewBox="-100 -100 100 100"
	xmlns="http://www.w3.org/2000/svg">
	<g transform="translate(-50,-50)"><circle r="48.5" stroke-width="3" stroke="#000" fill="#fda"/><circle r="43.5" stroke-width="3" stroke="#c00" fill="none"/><path transform="scale(0.267)" fill="#c00" d="M23,-116C21,-115 19,-113 17,-111C8,-103 -14,-91 -33,-83L-41,-80 -47,-84C-55,-88 -62,-88 -65,-85C-67,-83 -67,-81 -65,-75C-64,-72 -62,-65 -61,-59C-57,-36 -49,21 -50,22C-50,22 -57,23 -66,24C-113,27 -115,27 -117,29C-119,31 -118,33 -115,36C-111,40 -99,46 -95,46C-94,46 -85,45 -77,43C-37,35 -1,32 83,32C98,31 112,31 113,30C115,30 117,29 118,27C119,26 119,25 117,22C115,17 110,14 100,11L92,9 77,11C60,13 36,16 35,16C35,15 44,-17 45,-19C48,-23 47,-27 44,-31C42,-32 40,-34 39,-35C37,-36 37,-36 38,-36C45,-36 72,-40 74,-41C79,-45 75,-51 64,-55C55,-58 52,-58 42,-56C37,-54 19,-50 2,-46C-16,-43 -31,-40 -33,-39C-35,-39 -35,-39 -36,-50C-37,-66 -38,-66 -33,-67C-31,-67 -17,-71 -2,-75C14,-80 31,-84 38,-86C50,-88 52,-90 52,-95C52,-98 51,-100 46,-104C40,-110 32,-115 27,-116C26,-117 24,-116 23,-116M17,-29C19,-22 16,15 14,17C14,18 -27,20 -27,20C-28,20 -29,11 -30,1C-31,-8 -32,-18 -33,-21C-33,-23 -33,-25 -32,-25C-32,-24 -22,-26 -10,-28C18,-33 17,-33 17,-29M-39,43C-41,44 -43,47 -43,50C-43,53 -48,61 -54,67C-61,75 -79,91 -92,100C-102,107 -103,108 -101,111C-99,114 -96,114 -86,109C-69,102 -51,92 -36,80C-25,72 -19,67 -16,67C-15,66 -13,65 -12,64C-8,59 -12,53 -24,47C-31,43 -35,42 -39,43M14,49C13,49 12,51 12,52C12,53 17,59 23,66C29,72 39,83 44,89C59,107 68,113 74,109C79,107 80,103 80,95C79,81 70,70 51,60C40,55 26,49 19,48C17,47 16,48 14,49"/></g>
	
</svg>
